<svg width="221" height="246" viewBox="0 0 221 246" fill="none" xmlns="http://www.w3.org/2000/svg">
<path fill-rule="evenodd" clip-rule="evenodd" d="M207.944 137.332C207.944 191.596 163.995 235.579 109.758 235.579C55.5363 235.579 11.58 191.596 11.58 137.332C11.58 83.0601 55.5363 39.0626 109.758 39.0626C163.995 39.0626 207.944 83.0601 207.944 137.332V137.332Z" stroke="black" stroke-width="20"/>
<path d="M135.871 190.346L143.491 182.734L137.444 117.306L152.67 102.069C152.67 102.069 161.328 96.0313 157.137 87.092C157.137 87.092 151.358 79.7344 142.179 88.9279L125.111 106.009L58.4219 99.7101L51.8603 106.27L103.839 127.291L85.7271 147.528L60.0024 144.364L53.4407 150.931L74.7062 161.184C74.7062 161.184 70.7622 167.235 72.3356 169.855C73.916 172.481 79.9556 169.855 79.9556 169.855L92.5145 190.134L99.9088 182.734L95.7037 157.505L115.911 137.275L135.878 190.346H135.871ZM85.4307 33.9433L102.449 3.63723C102.449 3.63723 106.873 -4.54654 112.997 3.63723L134.093 33.9433H85.4307ZM206.646 179.317L220.312 211.282C220.312 211.282 224.101 219.769 213.892 219.656L177.012 217.962L206.646 179.317ZM41.3192 216.881L6.84561 221.21C6.84561 221.21 -2.34781 222.509 0.573199 212.715L12.3772 177.714L41.3192 216.881Z" fill="black"/>
</svg>
