<svg width="798" height="102" viewBox="0 0 798 102" fill="none" xmlns="http://www.w3.org/2000/svg">
<path d="M0 0V15.5916H25.3944V97.1676H43.9329V15.5916H69.323V0H0ZM121.18 78.7735L106.271 21.2523H106.001L90.5559 78.7735H121.18ZM90.5559 78.7735L84.7768 99.7383H66.3713L94.3099 2.575H117.422L144.966 99.7383H126.56L90.5559 78.7735ZM157.18 99.7383V2.70804H175.723V45.8479L208.098 2.70804H229.464L201.92 39.1271L233.896 99.7383H213.336L189.289 53.6458L175.723 70.5765V99.7383H157.18ZM247.59 99.7383V2.70804H311.812V18.2954H266.129V41.4146H299.319V57.0062H266.129V84.1467H313.288V99.7383H247.59ZM404.097 16.9521C388.922 16.9521 381.933 28.5138 381.933 51.2253C381.663 73.9411 388.781 85.4986 404.097 85.4986C419.28 85.4986 426.269 73.9411 426.269 51.221C426.269 28.5138 419.28 16.9564 404.097 16.9564V16.9521ZM404.097 101.086C377.634 101.086 363.39 82.9407 363.39 51.2253C363.39 19.5099 377.634 1.36475 404.097 1.36475C430.568 1.36475 444.804 19.5099 444.804 51.221C444.804 82.9365 430.568 101.082 404.097 101.086ZM459.442 99.7383V2.70804H521.24V18.2954H477.985V41.4146H510.364V57.0062H477.985V99.7383H459.442ZM534.141 99.7383V2.70804H595.939V18.2954H552.675V41.4146H585.054V57.0062H552.675V99.7383H534.141ZM684.47 30.6597C680.038 20.9862 674.666 16.9521 664.987 16.9521C651.288 16.9521 644.565 30.6597 644.565 52.1609C644.565 72.5935 652.224 85.4943 665.116 85.4943C677.215 85.4943 685.006 77.426 685.409 66.2762H667.004V50.6846H703.283V99.7383H689.841V89.7945C682.05 98.395 674.799 101.082 664.584 101.082C638.259 101.082 626.031 80.1125 626.031 52.7017C626.031 27.9731 635.427 1.36046 666.472 1.36046C685.812 1.36046 697.096 11.845 701.665 26.0933L684.47 30.6597ZM756.341 16.9521C741.153 16.9521 734.177 28.5095 734.177 51.221C733.903 73.9368 741.025 85.4943 756.341 85.4943C771.525 85.4943 778.505 73.9368 778.505 51.221C778.505 28.5095 771.525 16.9521 756.341 16.9521ZM756.341 101.082C729.878 101.082 715.635 82.9365 715.635 51.221C715.635 19.5056 729.878 1.36046 756.341 1.36046C782.812 1.36046 797.048 19.5056 797.048 51.221C797.048 82.9365 782.812 101.082 756.341 101.082Z" fill="black"/>
</svg>
